<svg width="186" height="20" viewBox="0 0 186 20" fill="none" xmlns="http://www.w3.org/2000/svg">
<path d="M0.317827 19V0.818181H3.06108V16.6385H11.2997V19H0.317827ZM27.3713 0.818181H30.1234V12.7766C30.1234 14.0491 29.8245 15.1766 29.2267 16.1591C28.629 17.1357 27.7885 17.9051 26.7054 18.4673C25.6223 19.0237 24.3528 19.3018 22.8968 19.3018C21.4468 19.3018 20.1802 19.0237 19.0971 18.4673C18.014 17.9051 17.1736 17.1357 16.5758 16.1591C15.978 15.1766 15.6792 14.0491 15.6792 12.7766V0.818181H18.4224V12.5547C18.4224 13.3774 18.6029 14.1083 18.964 14.7475C19.3309 15.3867 19.8488 15.8898 20.5176 16.2567C21.1864 16.6178 21.9795 16.7983 22.8968 16.7983C23.8201 16.7983 24.6162 16.6178 25.285 16.2567C25.9597 15.8898 26.4746 15.3867 26.8297 14.7475C27.1908 14.1083 27.3713 13.3774 27.3713 12.5547V0.818181ZM50.463 6.73082H47.6931C47.5866 6.13897 47.3883 5.61813 47.0983 5.16832C46.8083 4.71851 46.4532 4.33677 46.0329 4.02308C45.6127 3.7094 45.1422 3.47266 44.6214 3.31285C44.1064 3.15305 43.559 3.07315 42.979 3.07315C41.9314 3.07315 40.9933 3.33653 40.1647 3.86328C39.342 4.39003 38.691 5.16241 38.2116 6.1804C37.7381 7.19839 37.5013 8.44129 37.5013 9.90909C37.5013 11.3887 37.7381 12.6375 38.2116 13.6555C38.691 14.6735 39.345 15.4429 40.1736 15.9638C41.0022 16.4846 41.9343 16.745 42.9701 16.745C43.5442 16.745 44.0887 16.6681 44.6036 16.5142C45.1244 16.3544 45.595 16.1206 46.0152 15.8129C46.4354 15.5051 46.7905 15.1293 47.0805 14.6854C47.3765 14.2356 47.5806 13.7206 47.6931 13.1406L50.463 13.1495C50.315 14.0432 50.028 14.8659 49.6018 15.6175C49.1816 16.3633 48.6401 17.0084 47.9772 17.5529C47.3202 18.0915 46.5686 18.5088 45.7222 18.8047C44.8759 19.1006 43.9526 19.2486 42.9523 19.2486C41.378 19.2486 39.9753 18.8757 38.7442 18.13C37.5132 17.3783 36.5425 16.3041 35.8323 14.9073C35.128 13.5105 34.7758 11.8445 34.7758 9.90909C34.7758 7.9678 35.1309 6.30173 35.8412 4.91087C36.5514 3.51409 37.522 2.44283 38.7531 1.69709C39.9842 0.94543 41.3839 0.569602 42.9523 0.569602C43.9171 0.569602 44.8167 0.708688 45.6512 0.986861C46.4916 1.25911 47.2462 1.66158 47.915 2.19425C48.5838 2.721 49.1372 3.36612 49.5752 4.12962C50.0132 4.88719 50.3091 5.75426 50.463 6.73082ZM56.4094 19H53.4974L60.0404 0.818181H63.2098L69.7528 19H66.8408L61.7006 4.12074H61.5585L56.4094 19ZM56.8976 11.88H66.3437V14.1882H56.8976V11.88ZM83.3984 5.59446C83.3037 4.75402 82.9131 4.10298 82.2266 3.64133C81.54 3.17377 80.6759 2.93999 79.6342 2.93999C78.8885 2.93999 78.2434 3.05836 77.6989 3.2951C77.1544 3.52592 76.7312 3.84553 76.4293 4.25391C76.1334 4.65637 75.9854 5.11506 75.9854 5.62997C75.9854 6.06203 76.0861 6.4349 76.2873 6.74858C76.4944 7.06226 76.7637 7.32564 77.0952 7.53871C77.4325 7.74586 77.7936 7.92045 78.1783 8.0625C78.563 8.19863 78.9329 8.31108 79.288 8.39986L81.0636 8.86151C81.6436 9.00355 82.2384 9.1959 82.848 9.43856C83.4576 9.68123 84.0228 10.0008 84.5437 10.3974C85.0645 10.7939 85.4847 11.2852 85.8043 11.8711C86.1299 12.457 86.2926 13.1584 86.2926 13.9751C86.2926 15.005 86.0263 15.9194 85.4936 16.7184C84.9669 17.5174 84.2004 18.1477 83.1942 18.6094C82.194 19.071 80.9837 19.3018 79.5632 19.3018C78.2019 19.3018 77.0241 19.0858 76.0298 18.6538C75.0355 18.2217 74.2572 17.6091 73.695 16.8161C73.1327 16.017 72.822 15.0701 72.7628 13.9751H75.5149C75.5682 14.6321 75.7813 15.1796 76.1541 15.6175C76.5329 16.0496 77.0153 16.3722 77.6012 16.5852C78.1931 16.7924 78.8411 16.896 79.5455 16.896C80.3208 16.896 81.0103 16.7746 81.614 16.532C82.2236 16.2834 82.703 15.9401 83.0522 15.5021C83.4014 15.0582 83.576 14.5404 83.576 13.9485C83.576 13.4099 83.4221 12.969 83.1143 12.6257C82.8125 12.2824 82.4012 11.9983 81.8803 11.7734C81.3654 11.5485 80.7824 11.3503 80.1314 11.1786L77.983 10.5927C76.527 10.1961 75.3729 9.61316 74.5206 8.84375C73.6742 8.07434 73.2511 7.05634 73.2511 5.78977C73.2511 4.74219 73.5352 3.82777 74.1033 3.04652C74.6715 2.26527 75.4409 1.65862 76.4116 1.22656C77.3822 0.788589 78.4772 0.569602 79.6964 0.569602C80.9274 0.569602 82.0135 0.785629 82.9545 1.21768C83.9015 1.64974 84.6473 2.24455 85.1918 3.00213C85.7363 3.75379 86.0204 4.6179 86.044 5.59446H83.3984ZM98.687 19V0.818181H109.962V3.17969H101.43V8.71946H109.154V11.0721H101.43V19H98.687ZM114.585 19V0.818181H121.066C122.475 0.818181 123.644 1.06084 124.573 1.54616C125.508 2.03149 126.206 2.70324 126.668 3.56143C127.13 4.41371 127.361 5.39915 127.361 6.51776C127.361 7.63044 127.127 8.60997 126.659 9.45632C126.198 10.2968 125.499 10.9508 124.564 11.4183C123.635 11.8859 122.466 12.1197 121.057 12.1197H116.148V9.75817H120.809C121.697 9.75817 122.419 9.63092 122.975 9.37642C123.537 9.12192 123.949 8.75201 124.209 8.26669C124.469 7.78137 124.6 7.19839 124.6 6.51776C124.6 5.8312 124.466 5.23639 124.2 4.73331C123.94 4.23023 123.528 3.84553 122.966 3.57919C122.41 3.30694 121.679 3.17081 120.773 3.17081H117.329V19H114.585ZM123.561 10.7969L128.053 19H124.928L120.525 10.7969H123.561ZM131.949 19V0.818181H143.348V3.17969H134.692V8.71946H142.753V11.0721H134.692V16.6385H143.454V19H131.949ZM151.005 0.818181V19H148.262V0.818181H151.005ZM156.25 19V0.818181H162.731C164.14 0.818181 165.309 1.06084 166.238 1.54616C167.173 2.03149 167.872 2.70324 168.333 3.56143C168.795 4.41371 169.026 5.39915 169.026 6.51776C169.026 7.63044 168.792 8.60997 168.324 9.45632C167.863 10.2968 167.164 10.9508 166.229 11.4183C165.3 11.8859 164.131 12.1197 162.722 12.1197H157.813V9.75817H162.474C163.362 9.75817 164.084 9.63092 164.64 9.37642C165.202 9.12192 165.614 8.75201 165.874 8.26669C166.134 7.78137 166.265 7.19839 166.265 6.51776C166.265 5.8312 166.131 5.23639 165.865 4.73331C165.605 4.23023 165.193 3.84553 164.631 3.57919C164.075 3.30694 163.344 3.17081 162.438 3.17081H158.994V19H156.25ZM165.226 10.7969L169.718 19H166.593L162.19 10.7969H165.226ZM173.614 19V0.818181H185.013V3.17969H176.357V8.71946H184.418V11.0721H176.357V16.6385H185.119V19H173.614Z" fill="url(#paint0_radial_14_45)"/>
<defs>
<radialGradient id="paint0_radial_14_45" cx="0" cy="0" r="1" gradientUnits="userSpaceOnUse" gradientTransform="translate(-13.8859 10) scale(73.3696 374.815)">
<stop stop-color="#255954"/>
<stop offset="1" stop-color="#3A8C7D"/>
</radialGradient>
</defs>
</svg>
